<svg xmlns="http://www.w3.org/2000/svg" width="18" height="18" viewBox="0 0 18 18">
  <path id="Path_1962" data-name="Path 1962" d="M18,7.362l-.5.5h-.612v.612L16.362,9h-.4L14.832,7.866H13.518L12.87,9H12.6l-.342-1.278L11.07,7.614,9.234,9H8.766L6.93,7.614l-1.188.108L5.4,9H5.13L4.482,7.866H3.168L2.034,9h-.4l-.522-.522V7.866H.5l-.5-.5V6.984L1.116,5.868V4.536L0,3.906V3.618l1.26-.342.126-1.17L0,.252v-.5L1.386-2.106,1.26-3.276,0-3.618v-.288l1.116-.63V-5.868L0-6.984v-.378l.5-.5h.612v-.612L1.638-9h.4L3.168-7.866H4.482L5.13-9H5.4l.342,1.278,1.188.108L8.766-9h.468L11.07-7.614l1.188-.108L12.6-9h.27l.648,1.134h1.314L15.966-9h.4l.522.522v.612H17.5l.5.5v.378L16.884-5.868v1.332L18-3.906v.288l-1.26.342-.126,1.17L18-.252v.5L16.614,2.106l.126,1.17L18,3.618v.288l-1.116.63V5.868L18,6.984ZM16.6-7.866v-.5L16.164-8.8l-.936.936Zm1.206.7-.414-.414h-.5v1.332ZM16.6-5.94V-7.578H14.94l-.882.882L14.58-5.58l1.116.54ZM17.622-3.8,16.6-4.392V-5.58l-.864.864-.972-.45.468,1.008-.792,1.026,1.278-.18.648.864.108-1.044Zm-3.078-3.78H13.356L12.78-8.6,12.474-7.47l-1.08.108.954.7-.162,1.188.972-.756,1.008.468-.45-.99Zm.342,3.384-.54-1.152-1.152-.54-1.08.828-.306,2.286,2.214-.306ZM10.638-7.578,9-8.82,7.362-7.578l1.17.108L9-6.318,9.468-7.47ZM17.82,0,16.578-1.674,16.47-.5,15.228,0,16.47.5l.108,1.17ZM12.042-6.516l-1.062-.81-1.3.126-.54,1.26.882,2.16,1.836-1.44ZM16.326-2l-.738-1.008-1.4.2L12.744-.972l2.124.828L16.2-.7ZM11.808-4.806l-1.674,1.3.36.9,1.026-.126ZM13.77-2.754l-2,.27L11.628-1.4l.828.324ZM14.472,0,12.564-.738,12.006,0l.558.738Zm-4.7-3.618L9-5.562,8.226-3.618,9-3.006ZM8.856-5.94,8.316-7.2l-1.3-.126-1.062.81.18,1.3L7.974-3.78ZM16.326,2,16.2.7,14.868.144,12.744.972l1.44,1.836,1.4.2Zm-9.72-9.36L5.526-7.47,5.22-8.6,4.644-7.578H3.438l.846.828-.45.99,1.008-.468.972.756L5.652-6.66ZM17.622,3.8,16.47,3.492l-.108-1.044-.648.864-1.278-.18.792,1.026L14.76,5.166l.972-.45.864.864V4.392ZM7.866-3.51l-1.674-1.3.288,2.07,1.026.126Zm5.9,6.264L12.456,1.08l-.828.324.144,1.08Zm-11-10.62L1.836-8.8,1.4-8.37v.5ZM17.8,7.164l-.918-.918V7.578h.5ZM3.942-6.7l-.9-.882H1.4v1.62l.9.9L3.42-5.58Zm2.25,3.924L5.886-5.058l-1.08-.828-1.152.54-.54,1.152.864,1.116Zm6.1,3.618L11.628,0l.666-.846-.99-.378.18-1.224-1.17.162L9.9-3.33l-.9.7-.9-.7L7.686-2.286l-1.17-.162L6.7-1.224l-.99.378L6.372,0,5.706.846l.99.378-.18,1.224,1.17-.162L8.1,3.33l.9-.7.9.7.414-1.044,1.17.162L11.3,1.224Zm2.592,3.348-.864-1.116-2.214-.306.306,2.286,1.08.828,1.152-.54ZM16.6,7.578V5.958l-.9-.918-1.116.54L14.058,6.7l.9.882Zm0,.792v-.5H15.228l.936.936ZM1.116-6.246V-7.578h-.5L.2-7.164ZM6.372-1.4l-.144-1.08-2-.27L5.544-1.08Zm5.436,6.21-.288-2.07L10.494,2.61l-.36.9ZM3.564-3.132,2.772-4.158,3.24-5.166l-.972.45L1.4-5.58v1.188L.378-3.8l1.152.306.108,1.044.648-.864Zm11,10.71-.846-.828.45-.99-1.008.468-.972-.756.162,1.188-.954.7,1.08.108L12.78,8.6l.576-1.026ZM5.256-.972,3.816-2.808l-1.4-.2L1.674-2,1.8-.7l1.332.558Zm6.786,7.488-.18-1.3L10.026,3.78,9.144,5.94l.54,1.26,1.3.126ZM5.994,0,5.436-.738,3.528,0,5.436.738Zm3.78,3.618L9,3.006l-.774.612L9,5.562ZM6.372,1.4,5.544,1.08,4.23,2.754l2-.27ZM7.866,3.51l-.36-.9L6.48,2.736l-.288,2.07ZM5.256.972,3.132.144,1.8.7,1.674,2l.738,1.008,1.4-.2Zm3.6,4.968L7.974,3.78,6.138,5.22l-.18,1.3,1.062.81,1.3-.126ZM2.772,0,1.53-.5l-.108-1.17L.18,0,1.422,1.674,1.53.5Zm7.866,7.578L9.468,7.47,9,6.318,8.532,7.47l-1.17.108L9,8.82ZM6.192,2.772l-2.214.306L3.114,4.194l.54,1.152,1.152.54,1.08-.828Zm.414,4.59-.954-.7.162-1.188-.972.756L3.834,5.76l.45.99-.846.828H4.644L5.22,8.6,5.526,7.47ZM3.564,3.132l-1.278.18-.648-.864L1.53,3.492.378,3.8,1.4,4.392V5.58l.864-.864.972.45L2.772,4.158ZM3.942,6.7,3.42,5.58,2.3,5.04l-.9.918v1.62H3.042Zm-1.17,1.17H1.4v.5l.432.432ZM1.116,7.578V6.246L.2,7.164l.414.414Z" transform="translate(0 9)" fill="#f8f8f8"/>
</svg>
